<svg width="32" height="32" viewBox="0 0 32 32" fill="none" xmlns="http://www.w3.org/2000/svg">
<path d="M17.229 4.00001C17.018 4.0082 16.8166 4.09032 16.66 4.23201L9.06003 10.552C8.93594 10.6752 8.78556 10.7688 8.62016 10.8256C8.45476 10.8824 8.27864 10.901 8.10503 10.88H3.20803C3.04909 10.8789 2.89153 10.9095 2.74449 10.9698C2.59745 11.0301 2.46386 11.1191 2.35147 11.2315C2.23909 11.3438 2.15015 11.4774 2.08981 11.6245C2.02948 11.7715 1.99896 11.9291 2.00003 12.088V19.914C1.99923 20.0728 2.02995 20.2301 2.0904 20.3769C2.15085 20.5237 2.23983 20.6571 2.35219 20.7693C2.46455 20.8814 2.59805 20.9702 2.74496 21.0304C2.89187 21.0906 3.04926 21.1211 3.20803 21.12H8.10003C8.27365 21.099 8.44976 21.1176 8.61516 21.1744C8.78056 21.2312 8.93094 21.3248 9.05503 21.448L16.655 27.768C17.176 28.201 17.736 27.992 17.736 27.479V4.52201C17.7399 4.45371 17.7296 4.38535 17.7057 4.32125C17.6818 4.25715 17.6449 4.19871 17.5972 4.14963C17.5495 4.10056 17.4922 4.06192 17.4288 4.03617C17.3654 4.01041 17.2974 3.9981 17.229 4.00001ZM27 6.30001L25.209 8.09301C26.7212 10.4585 27.5248 13.2074 27.5248 16.015C27.5248 18.8226 26.7212 21.5715 25.209 23.937L26.994 25.713C28.951 22.8546 29.9986 19.4716 29.9997 16.0074C30.0008 12.5433 28.9552 9.15965 27 6.30001ZM22.667 10.623L20.905 12.4C21.6873 13.4442 22.1102 14.7138 22.1102 16.0185C22.1102 17.3232 21.6873 18.5928 20.905 19.637L22.661 21.393C23.8964 19.8709 24.5715 17.9706 24.5734 16.0103C24.5752 14.0499 23.9036 12.1484 22.671 10.624L22.667 10.623Z" fill="black"/>
</svg>
