<svg width="24" height="24" viewBox="0 0 24 24" fill="none" xmlns="http://www.w3.org/2000/svg">
<g clip-path="url(#clip0_97_447)">
<path d="M16.7907 4.92188H21.2767C21.4501 4.92188 21.5813 4.79063 21.5813 4.61719C21.5813 4.22344 21.4079 3.83437 21.1032 3.57187L17.2267 0.39375C16.9642 0.178125 16.5282 0.046875 16.1813 0.046875C15.9657 0.046875 15.8345 0.220312 15.8345 0.39375V4.00781C15.8345 4.52812 16.2704 4.92188 16.7907 4.92188Z" fill="#FFF1EE"/>
<path d="M14.5268 4.00781V0H7.99238C7.12051 0 6.37988 0.698438 6.37988 1.6125V18.3797C6.37988 19.2516 7.07832 19.9922 7.99238 19.9922H19.9689C20.8408 19.9922 21.5814 19.2516 21.5814 18.3797V6.22969H16.7908C15.5721 6.22969 14.5268 5.22656 14.5268 4.00781Z" fill="#FFF1EE"/>
<path d="M5.02988 19.7766V3.225H4.03145C3.15957 3.225 2.41895 3.92344 2.41895 4.8375V22.3922C2.41895 23.2641 3.11738 24.0047 4.03145 24.0047H16.7955C17.6674 24.0047 18.408 23.2641 18.408 22.3922V21.3891H6.64238C5.72832 21.3422 5.02988 20.6484 5.02988 19.7766Z" fill="#FFF1EE"/>
</g>
<defs>
<clipPath id="clip0_97_447">
<rect width="24" height="24" fill="white"/>
</clipPath>
</defs>
</svg>
