<svg width="27" height="32" viewBox="0 0 27 32" fill="none" xmlns="http://www.w3.org/2000/svg">
<g clip-path="url(#clip0_154_7)">
<path fill-rule="evenodd" clip-rule="evenodd" d="M16.1937 11.399C17.1726 10.9109 18.4181 10.1924 19.6651 9.208C19.9281 9.75403 19.9569 10.2305 19.8214 10.6153C19.7254 10.8864 19.5445 11.1222 19.3066 11.3099C19.049 11.5126 18.7273 11.6603 18.3717 11.7401C17.6969 11.8921 16.9091 11.8033 16.1937 11.399ZM16.3634 16.4002L17.6592 17.1487C15.0134 18.6316 14.2942 21.3851 13.4398 24.067C12.5855 21.3851 11.8661 18.6316 9.22045 17.1487L10.5162 16.4002C10.6416 16.3528 10.7487 16.267 10.8223 16.155C10.8959 16.043 10.9321 15.9106 10.9258 15.7767C10.8071 13.2651 11.4853 12.1543 12.4001 11.457C12.7282 11.2071 13.0864 11.0817 13.4398 11.0817C13.7931 11.0817 14.1513 11.2071 14.4795 11.457C15.3943 12.1543 16.0725 13.2651 15.9538 15.7767C15.9475 15.9106 15.9837 16.043 16.0573 16.155C16.1309 16.267 16.238 16.3528 16.3634 16.4002ZM13.4398 0C14.9376 0.0402133 16.4391 0.330987 17.7423 0.89664C18.6447 1.28885 19.4867 1.80693 20.2491 2.42645C20.5935 2.70613 20.877 2.97632 21.1893 3.28736C22.0316 3.31648 23.2627 2.38069 23.8342 1.50507C22.8506 4.7296 18.3623 8.53749 15.255 9.99456C15.2537 9.99403 15.2529 9.99328 15.2519 9.99264C14.6943 9.56683 14.0671 9.35392 13.4398 9.35392C12.8124 9.35392 12.1854 9.56683 11.6277 9.99264C11.6267 9.99317 11.6259 9.99413 11.6246 9.99456C8.5172 8.53749 4.02898 4.7296 3.04541 1.50507C3.61682 2.38069 4.84786 3.31648 5.69021 3.28736C6.00264 2.97643 6.28616 2.70613 6.63037 2.42645C7.39282 1.80693 8.23485 1.28885 9.13725 0.89664C10.4405 0.330987 11.942 0.0402133 13.4398 0ZM10.6858 11.399C9.70706 10.9109 8.46141 10.1924 7.21448 9.208C6.95154 9.75403 6.92274 10.2305 7.0581 10.6153C7.15421 10.8864 7.33512 11.1222 7.57288 11.3099C7.83058 11.5126 8.15229 11.6603 8.50792 11.7401C9.18269 11.8921 9.97042 11.8033 10.6858 11.399Z" fill="black"/>
<path fill-rule="evenodd" clip-rule="evenodd" d="M21.0311 8.00171C21.7177 7.30891 22.3226 6.54209 22.809 5.85782L23.056 6.32278C23.8513 7.91393 24.2645 9.49867 24.2645 11.2821L24.2628 14.1122L24.2778 15.5793C24.3354 19.181 25.1147 22.8251 26.88 26.1599L23.1865 23.1816L20.573 27.4225L17.8274 24.8379L13.44 31.9578L9.05259 24.838L6.30709 27.4226L3.69365 23.1817L0 26.16C1.76533 22.8252 2.54464 19.1811 2.60235 15.5794L2.61728 14.1123L2.61557 11.2822C2.61557 9.49867 3.02869 7.91393 3.82421 6.32289L4.07115 5.85793C4.55755 6.54219 5.16235 7.30891 5.84896 8.00182L5.63456 8.44715C5.21803 9.31211 5.08011 10.2793 5.40459 11.199C5.61376 11.7915 5.99552 12.2995 6.48768 12.6874C6.96555 13.064 7.53109 13.3179 8.1232 13.4512C8.50891 13.538 8.90187 13.5738 9.29227 13.5616C9.20117 14.078 9.16139 14.6136 9.15883 15.1593L5.67467 17.1716L8.36331 18.6787C8.5782 18.7992 8.78277 18.9372 8.97493 19.0914C11.1916 21.0816 12.5243 26.9693 13.4401 29.8451C14.3561 26.9693 15.6886 21.0816 17.9054 19.0914C18.0975 18.9372 18.3021 18.7992 18.517 18.6787L21.2057 17.1716L17.7214 15.1593C17.7188 14.6136 17.679 14.078 17.5879 13.5616C17.9783 13.5738 18.3713 13.538 18.757 13.4512C19.3491 13.3179 19.9148 13.064 20.3925 12.6874C20.8846 12.2995 21.2665 11.7915 21.4755 11.199C21.8001 10.2793 21.6621 9.31222 21.2457 8.44715L21.0313 8.00182L21.0311 8.00171Z" fill="black"/>
</g>
<defs>
<clipPath id="clip0_154_7">
<rect width="26.88" height="32" fill="white"/>
</clipPath>
</defs>
</svg>
