<svg width="32" height="27" viewBox="0 0 32 27" fill="none" xmlns="http://www.w3.org/2000/svg">
<path d="M29.8142 0.109249L0.833233 11.324C0.815991 11.3307 0.799276 11.3386 0.783232 11.3478C0.548224 11.4809 -1.09183 12.4841 1.22075 13.3835L1.2445 13.3922L8.14536 15.6217C8.19801 15.6388 8.25376 15.6442 8.30872 15.6375C8.36367 15.6308 8.41649 15.6121 8.4635 15.5829L25.5797 4.90379C25.6217 4.8776 25.6684 4.85997 25.7172 4.85191C25.9554 4.81254 26.641 4.73878 26.2072 5.28943C25.7166 5.91445 14.0256 16.3911 12.728 17.553C12.6532 17.6201 12.6069 17.7134 12.5986 17.8136L12.0324 24.5638C12.0323 24.6326 12.0482 24.7004 12.079 24.7619C12.1097 24.8234 12.1543 24.877 12.2093 24.9182C12.2873 24.9674 12.379 24.9901 12.471 24.9832C12.5629 24.9762 12.6502 24.9398 12.7199 24.8795L16.82 21.215C16.8848 21.1571 16.9674 21.1231 17.0542 21.1187C17.1409 21.1143 17.2266 21.1396 17.2969 21.1906L24.4503 26.3845L24.4734 26.4002C24.6466 26.507 26.5166 27.5952 27.0566 25.1651L31.9943 1.68618C32.0012 1.6118 32.0681 0.794273 31.4837 0.311131C30.8699 -0.193887 30.0011 0.0611222 29.8705 0.0886231C29.8512 0.0939871 29.8324 0.100884 29.8142 0.109249Z" fill="black"/>
</svg>
