<svg width="32" height="27" viewBox="0 0 32 27" fill="none" xmlns="http://www.w3.org/2000/svg">
<g clip-path="url(#clip0_154_3)">
<path d="M28.6388 6.61806C28.6582 6.89806 28.6582 7.17806 28.6582 7.46064C28.6582 16.071 22.1033 26.0013 10.1175 26.0013V25.9961C6.57689 26.0013 3.1098 24.9871 0.12915 23.0748C0.643989 23.1368 1.16141 23.1677 1.68012 23.169C4.61431 23.1716 7.46463 22.1871 9.77302 20.3742C6.98463 20.3213 4.53947 18.5032 3.68528 15.849C4.66205 16.0374 5.66851 15.9987 6.62722 15.7368C3.58722 15.1226 1.40012 12.4516 1.40012 9.34968V9.26709C2.30592 9.77161 3.32012 10.0516 4.35754 10.0826C1.49431 8.16903 0.611731 4.36 2.34076 1.38193C5.64915 5.4529 10.5304 7.92774 15.7704 8.18968C15.2453 5.92645 15.9627 3.55484 17.6556 1.96387C20.2801 -0.503229 24.4079 -0.376777 26.875 2.24645C28.3343 1.95871 29.733 1.42322 31.013 0.664513C30.5266 2.1729 29.5085 3.45419 28.1485 4.26838C29.4401 4.11613 30.7021 3.77032 31.8904 3.24258C31.0156 4.55355 29.9137 5.69548 28.6388 6.61806Z" fill="black"/>
</g>
<defs>
<clipPath id="clip0_154_3">
<rect width="32" height="26.3226" fill="white"/>
</clipPath>
</defs>
</svg>
